<svg width="24" height="24" viewBox="0 0 24 24" fill="currentColor" xmlns="http://www.w3.org/2000/svg">
    <path fill-rule="evenodd" clip-rule="evenodd" d="M11.576 2.00343L3 6.28335L3.02794 16.4367L3.02533 16.4391L3.02794 16.4379L3.02795 16.4408L3.03419 16.4352C5.58784 15.3254 7.85549 13.3817 9.4478 10.6971L9.45551 10.6902L9.45806 10.6798C11.047 7.99289 11.7245 4.96369 11.5773 2.01016L11.5794 2.00173L11.577 2.00294L11.5768 2L11.576 2.00343ZM12.424 2.00343L21 6.28335L20.9721 16.4367L20.9747 16.4391L20.9721 16.4379L20.972 16.4408L20.9658 16.4352C18.4122 15.3254 16.1445 13.3817 14.5522 10.6971L14.5445 10.6902L14.5419 10.6798C12.953 7.99289 12.2755 4.96369 12.4227 2.01016L12.4206 2.00173L12.423 2.00294L12.4232 2L12.424 2.00343ZM12.0978 22.25L3.79429 17.3315L3.79085 17.3325L3.79328 17.3309L3.79085 17.3295L3.79922 17.327C6.13674 15.7832 8.99744 14.8743 12.0874 14.8723L12.0978 14.8692L12.1082 14.8723C15.1981 14.8743 18.0588 15.7832 20.3963 17.327L20.4048 17.3295L20.4023 17.3309L20.4047 17.3325L20.4013 17.3315L12.0978 22.25Z" />
</svg>
