<svg viewBox="0 0 15 15" width="1.2em" height="1.2em" class="w-5 h-5 text-foreground"><path fill="currentColor" fill-rule="evenodd" d="M7.5 0a.5.5 0 0 1 .5.5v2a.5.5 0 0 1-1 0v-2a.5.5 0 0 1 .5-.5M2.197 2.197a.5.5 0 0 1 .707 0L4.318 3.61a.5.5 0 0 1-.707.707L2.197 2.904a.5.5 0 0 1 0-.707M.5 7a.5.5 0 0 0 0 1h2a.5.5 0 0 0 0-1zm1.697 5.803a.5.5 0 0 1 0-.707l1.414-1.414a.5.5 0 1 1 .707.707l-1.414 1.414a.5.5 0 0 1-.707 0M12.5 7a.5.5 0 0 0 0 1h2a.5.5 0 0 0 0-1zm-1.818-2.682a.5.5 0 0 1 0-.707l1.414-1.414a.5.5 0 1 1 .707.707L11.39 4.318a.5.5 0 0 1-.707 0M8 12.5a.5.5 0 0 0-1 0v2a.5.5 0 0 0 1 0zm2.682-1.818a.5.5 0 0 1 .707 0l1.414 1.414a.5.5 0 1 1-.707.707l-1.414-1.414a.5.5 0 0 1 0-.707M5.5 7.5a2 2 0 1 1 4 0a2 2 0 0 1-4 0m2-3a3 3 0 1 0 0 6a3 3 0 0 0 0-6" clip-rule="evenodd"></path></svg>
